<svg width="124" height="59" viewBox="0 0 124 59" fill="none" xmlns="http://www.w3.org/2000/svg">
<path d="M70.6816 31.5354C70.6816 31.5354 70.6816 31.444 70.1635 34.1868C69.6454 36.9601 69.9197 35.5887 69.554 36.9601C69.1883 38.3315 67.9693 41.3486 68.0302 41.8971C68.0912 42.4152 68.335 42.5067 68.6397 42.6286C68.975 42.72 69.6454 42.3848 69.9197 41.501C70.194 40.6172 70.8645 38.6667 71.5045 35.6191C72.1445 32.5716 72.4797 31.9011 72.5406 31.0478C72.6016 30.1944 72.2359 29.9202 71.9006 29.9202C71.6264 29.8897 70.9559 30.103 70.6816 31.5354Z" fill="#EDE0D1"/>
<path d="M68.2133 28.823C68.2133 28.823 66.5676 29.7373 66.9943 31.2306C67.4209 32.7239 68.7923 33.6077 68.6704 34.3392C68.5485 35.0706 66.9333 35.8325 65.6533 34.1868C64.3429 32.5411 63.4591 29.8897 64.8 28.6097C66.1409 27.3297 69.219 25.8974 76.1979 25.745C83.1769 25.5926 90.9787 26.8726 91.0092 27.3602C91.0396 27.8478 89.8511 27.9392 85.5845 27.4516C81.3179 26.9335 71.718 26.0497 68.2133 28.823Z" fill="#EDE0D1"/>
<path d="M89.6679 36.4115C89.6375 36.1677 89.5765 35.7106 89.1499 35.3753C88.5403 34.9182 87.8089 35.4363 87.1689 36.1982C86.9251 36.5029 86.6813 36.8991 86.407 37.2648C86.407 36.6248 86.4375 35.8934 86.2547 35.4972C85.9194 34.8268 84.7309 35.2839 84.2433 35.6801C83.7861 36.0458 83.329 36.5639 83.1766 36.5639C83.0242 36.5639 83.2071 35.8325 82.5671 35.3753C81.9576 34.9182 81.2262 35.4363 80.5862 36.1982C79.9462 36.9905 79.1843 38.5143 78.7576 38.4229C78.331 38.3315 78.4529 37.1124 78.6052 36.2287C78.7576 35.3753 78.5443 34.4306 77.2643 34.4001C77.2643 34.4001 75.71 34.4611 74.3996 35.5582C73.0891 36.6553 72.4187 37.8134 72.1139 38.9105C71.8091 39.9772 71.8701 41.0133 72.8453 41.0133C73.8205 41.0133 75.5272 40.1905 76.2891 39.5505C77.051 38.88 77.051 38.88 77.051 38.88C77.051 38.88 77.2948 39.0019 77.3557 39.3981C77.4167 39.7943 77.9652 40.6781 79.0014 39.9162C80.0681 39.1543 80.7081 37.722 81.0128 37.3867C81.3176 37.0515 81.409 36.9296 81.4395 37.2344C81.47 37.5391 81.2871 38.9715 81.2566 39.4896C81.2261 40.0076 81.2566 40.5562 81.6528 40.6781C82.049 40.8 82.3538 40.6781 82.628 40.0381C82.9023 39.3981 83.6947 37.5391 83.9994 37.1429C84.2737 36.7467 84.6699 36.5944 84.7004 37.021C84.7309 37.4477 84.548 39.6115 85.0661 40.1905C85.188 40.3429 85.3099 40.4038 85.4013 40.4343C85.7061 40.4343 85.9804 40.0686 86.2547 39.5505C86.3156 39.4591 86.3461 39.3372 86.407 39.2153C86.407 39.2153 86.6204 38.8496 86.6813 38.6972C86.7118 38.6667 86.7118 38.6362 86.7423 38.6058C86.7727 38.5753 86.7727 38.5448 86.7727 38.5143C86.9861 38.1486 87.1994 37.8439 87.3518 37.6305C87.4127 37.5391 87.4737 37.4477 87.5346 37.3867C87.8394 37.0515 87.9308 36.9296 87.9613 37.2344C87.9918 37.5391 87.8089 38.9715 87.7784 39.4896C87.748 40.0076 87.7784 40.5562 88.1746 40.6781C88.5099 40.7695 88.8146 40.7086 89.0584 40.2515V40.221C89.1803 39.9467 89.3022 39.3677 89.4241 38.5448C89.6679 37.722 89.6679 36.4115 89.6679 36.4115ZM76.8376 36.7163C76.6548 37.1734 76.1062 37.7524 75.3748 38.3315C74.6434 38.88 73.851 39.2458 73.7596 39.0324C73.6682 38.8191 73.8815 38.301 74.43 37.6305C74.9786 36.9601 76.1672 36.4115 76.1672 36.4115C76.6243 36.1982 77.0205 36.2591 76.8376 36.7163Z" fill="#EDE0D1"/>
<path d="M88.3881 40.7086C88.3881 40.7086 88.8757 40.9524 90.1557 40.0076C91.8013 38.7886 91.8623 38.2401 91.7404 38.0877C91.588 37.9353 90.948 38.2096 90.6128 38.6972C90.308 39.1848 89.729 39.6115 89.5766 39.4896C89.4242 39.3677 89.4547 39.2762 89.5157 39.0019C89.5461 38.7277 88.9061 38.5448 88.9061 38.5448L88.5404 39.6115V40.3124L88.3881 40.7086Z" fill="#EDE0D1"/>
<path d="M70.8645 30.8649C70.8645 30.8649 70.2245 33.2725 69.9197 34.8877C69.5845 36.5029 68.2435 40.9524 68.1521 41.3486C68.0607 41.7448 69.4016 41.7752 69.4016 41.7752L71.0168 36.5029C71.0168 36.5029 72.7235 30.6516 71.2606 30.2554C71.1387 30.2554 70.8645 30.8649 70.8645 30.8649Z" fill="#EDE0D1"/>
<path d="M72.2968 30.0421C72.2968 30.0421 72.9368 30.103 72.4797 31.8706C72.053 33.6382 70.7731 39.2762 69.9807 40.8305C69.1883 42.4152 68.8531 41.6229 68.8531 41.6229L69.7978 38.0877L72.2968 30.0421Z" fill="#EDE0D1"/>
<path d="M60.1066 36.2591C60.1676 36.1677 60.2285 36.1068 60.2895 36.0458C60.3504 35.101 60.3809 34.1868 60.3504 33.8515C60.3199 33.1506 59.8628 32.7849 59.5885 32.7849C59.2838 32.7849 59.0704 33.0896 59.04 33.303C58.979 33.5163 58.979 33.5163 58.979 33.5163C58.979 33.5163 57.4857 33.4858 56.1752 34.6134C54.8648 35.741 54.0724 36.8686 53.8591 37.6001C53.6153 38.3315 53.6457 38.7886 53.6457 38.7886C53.6457 38.7886 53.0058 38.941 52.64 38.362C52.3048 37.7829 52.64 36.1677 52.3048 35.4972C51.9696 34.8268 50.781 35.2839 50.2934 35.6801C49.8363 36.0458 49.3791 36.5639 49.2268 36.5639C49.0744 36.5639 49.2572 35.8325 48.6172 35.3753C48.0077 34.9182 47.2763 35.4363 46.6363 36.1982C45.9963 36.9905 45.2344 38.5143 44.8078 38.4229C44.3811 38.3315 44.503 37.1125 44.6554 36.2287C44.8078 35.3753 44.5944 34.4306 43.3145 34.4001C43.3145 34.4001 41.7602 34.4611 40.4497 35.5582C40.0231 35.8934 39.6574 36.2591 39.3831 36.6248C39.2917 36.7163 38.804 37.1429 38.3774 37.2344C38.3164 37.2344 38.225 37.2648 38.1336 37.2648C38.286 35.9239 37.585 34.8268 35.7565 34.6744C35.7565 34.6744 33.5317 34.9487 32.3737 36.4725C31.2156 37.9962 31.368 39.4591 31.6422 40.4343C31.9165 41.44 33.2574 42.141 34.5984 41.501C35.9393 40.861 37.2498 39.9467 37.8898 38.2096C37.9202 38.1486 37.9507 38.0572 37.9507 37.9962C38.164 37.9658 38.3774 37.9048 38.5602 37.8439C38.3774 38.2096 38.2555 38.5448 38.1641 38.88C37.8593 39.9467 37.9202 40.9829 38.8955 40.9829C39.8707 40.9829 41.5773 40.16 42.3392 39.52C43.1011 38.8496 43.1011 38.8496 43.1011 38.8496C43.1011 38.8496 43.3449 38.9715 43.4059 39.3677C43.4668 39.7638 43.9849 40.6476 45.0516 39.8857C46.1182 39.1238 46.7582 37.6915 47.063 37.3563C47.3677 37.021 47.4592 36.8991 47.4896 37.2039C47.5201 37.5086 47.3373 38.941 47.3068 39.4591C47.2763 39.9772 47.3068 40.5257 47.703 40.6476C48.0992 40.7695 48.4039 40.6476 48.6782 40.0076C48.9525 39.3677 49.7448 37.5086 50.0496 37.1125C50.3544 36.7163 50.7201 36.5639 50.7505 36.9905C50.781 37.4172 50.781 38.941 51.2991 39.5505C51.8172 40.16 52.4572 40.3734 53.0058 40.3124C53.5238 40.221 53.92 40.0076 53.92 40.0076C53.92 40.0076 54.5295 40.4953 55.9924 39.7029C57.059 39.1239 57.9124 38.5143 58.2781 38.2401V38.2096C58.3695 38.2401 59.4666 37.2344 60.1066 36.2591ZM33.7755 40.0381C32.8003 40.16 32.7698 38.88 33.4098 37.8439C33.9279 37.0515 34.7508 36.5944 35.086 36.442C35.1165 36.442 35.1165 36.442 35.1165 36.442C35.1165 36.442 34.9641 37.1125 35.3908 37.6001C35.5736 37.8134 35.8174 37.9658 36.0917 38.0572C35.665 38.8496 34.6289 39.9467 33.7755 40.0381ZM36.366 37.2344C36.305 37.2039 36.2441 37.2039 36.2136 37.1734C35.8174 36.9296 35.8784 36.3201 35.8784 36.3201C36.305 36.381 36.4269 36.7772 36.366 37.2344ZM42.9183 36.7163C42.7354 37.1734 42.1869 37.7524 41.4554 38.3315C40.724 38.88 39.9316 39.2458 39.8402 39.0324C39.7488 38.8191 39.9621 38.301 40.5107 37.6305C41.0593 36.9601 42.2478 36.4115 42.2478 36.4115C42.7049 36.1982 43.0707 36.2591 42.9183 36.7163ZM56.9676 37.3867C56.2362 37.9353 55.4438 38.301 55.3524 38.0877C55.261 37.9048 55.4743 37.3563 56.0229 36.6858C56.5714 36.0153 57.76 35.4668 57.76 35.4668C58.2171 35.2534 58.6133 35.3144 58.4304 35.7715C58.2171 36.2287 57.6685 36.8382 56.9676 37.3867Z" fill="#EDE0D1"/>
<path d="M58.9483 33.7296C58.8874 37.9962 58.674 42.2629 58.156 46.499C57.9731 47.9618 57.6988 49.3942 57.3636 50.8266C56.9979 52.4113 56.6017 53.996 55.9617 55.4893C55.6569 56.1903 55.1693 57.2569 54.377 57.4398C53.8284 57.5617 53.1579 56.9522 52.8532 56.4646C52.0303 55.2151 51.9998 53.5084 52.2741 52.0761C52.7617 49.5161 54.3465 47.5047 55.9922 45.5847C58.3998 42.7809 60.7464 39.9467 63.093 37.082C63.6721 36.381 62.6664 35.4058 62.1178 36.1068C60.7159 37.8134 59.2836 39.52 57.8817 41.2267C55.4131 44.1524 52.457 46.9561 51.2075 50.6742C50.4456 52.9599 50.4456 55.7027 51.9998 57.6531C52.5484 58.3541 53.3408 58.7807 54.2246 58.8417C55.1998 58.9026 55.9312 58.2017 56.4798 57.5007C57.0588 56.7084 57.4245 55.7027 57.7598 54.7884C58.2474 53.3865 58.5826 51.9542 58.8874 50.5218C59.4055 48.2361 59.6797 45.92 59.8931 43.6038C60.1674 40.3429 60.3197 37.0515 60.3807 33.7601C60.3502 32.8458 58.9788 32.8458 58.9483 33.7296Z" fill="#EDE0D1"/>
<path d="M91.1309 39.1543C91.1309 39.1543 92.6852 37.9353 92.3195 37.2953C91.9538 36.6858 91.1005 37.082 90.7957 37.661C90.43 38.4229 90.1252 38.6667 89.8814 38.9105C89.6071 39.1848 89.4548 39.1543 89.5157 38.6362C89.5767 38.1486 89.0281 38.9105 88.9671 38.9715C88.9062 39.0629 88.51 40.0686 88.51 40.0686C88.51 40.0686 88.8452 40.1905 88.9062 40.1905C88.9671 40.1905 89.6681 39.8248 89.6681 39.8248L90.2471 39.3981L90.7043 38.9105L91.5576 37.9658L91.1309 39.1543Z" fill="#EDE0D1"/>
<path d="M78.4225 30.8954C78.4225 30.8954 78.0568 31.7182 76.2587 32.3887C74.4606 33.0592 74.1863 33.1811 73.5463 33.3639C72.9064 33.5468 72.3578 33.6687 72.3578 33.8515C72.3578 34.0344 73.0892 34.1258 74.6435 33.5773C76.1977 33.0287 77.5691 32.3582 78.0263 32.1144C78.5139 31.8401 78.8491 31.6268 78.8491 31.6268C78.8491 31.6268 80.4034 32.8154 82.11 33.4249C83.7862 34.0344 85.0662 34.2477 86.3462 33.882C87.6262 33.5163 87.9614 32.663 87.6262 32.1754C87.2909 31.6878 86.1024 32.2059 84.4262 32.2059C82.75 32.1754 81.0434 31.6573 79.8548 30.6516C78.6968 29.6459 78.6358 29.4021 78.2396 29.8592C77.8739 30.2859 78.6358 30.4687 78.4225 30.8954Z" fill="#EDE0D1"/>
<path d="M41.8515 32.3277C41.8515 32.3277 42.9791 32.663 43.4058 32.9068C43.8324 33.1506 44.2286 33.7296 44.6857 33.4249C45.1429 33.1201 44.9905 32.1449 44.2896 31.4744C43.5581 30.8344 42.7962 30.3163 42.522 30.0116C42.2477 29.7068 41.5772 29.3411 40.9372 29.9506C40.2972 30.5602 40.8458 31.5659 41.1506 31.8706C41.4248 32.1449 41.4858 32.2973 41.8515 32.3277Z" fill="#EDE0D1"/>
<path d="M34.324 33.2116C34.8421 33.2421 36.183 33.3944 36.3659 32.3887C36.5487 31.383 36.3354 30.5907 35.2078 30.8345C34.9335 30.8954 34.0497 31.0783 32.8611 31.2916C33.1964 29.8592 33.4402 28.8231 33.5621 28.305C34.2021 25.2269 34.6592 22.606 34.7202 21.7222C34.7811 20.8689 34.4154 20.5946 34.0802 20.5946C33.7449 20.5946 32.8916 20.9298 32.8916 22.3317C32.8916 22.3317 32.5564 25.105 32.0383 27.8783C31.8554 28.8231 31.5507 30.164 31.2155 31.5659C29.9964 31.8097 28.625 32.084 27.2231 32.3583C27.2841 32.084 27.345 31.8402 27.3755 31.6268C27.985 28.6402 28.4422 25.9888 28.5031 25.1355C28.5641 24.2822 28.1983 24.0079 27.8631 24.0079C27.5279 24.0079 26.6746 24.3431 26.6746 25.745C26.6746 25.745 26.4612 28.4574 25.9431 31.2307C25.8517 31.6573 25.7603 32.1754 25.6384 32.724C23.2003 33.2421 20.9146 33.7906 19.5432 34.2782C15.8252 35.5887 15.3376 35.802 15.3376 35.802C15.3376 35.802 14.6976 36.0153 14.6062 36.7163C14.5147 37.3868 14.2709 38.4229 14.9414 38.4229C15.6119 38.4229 16.3737 37.9963 16.9223 37.9353C17.4709 37.8744 18.5375 37.6001 18.6594 37.1125C18.7813 36.6249 18.8423 36.442 19.5737 36.1677C20.0613 35.9849 22.6518 35.2839 25.2117 34.7049C24.5717 37.5087 23.7794 40.6477 23.5051 41.5924C23.1394 42.9943 21.9203 46.0114 21.9813 46.56C22.0422 47.0781 22.286 47.2 22.6213 47.2914C22.9565 47.3828 23.5356 46.9562 23.8098 46.0724C24.0232 45.3714 25.7298 38.6363 26.7355 34.3697C27.4365 34.2173 28.1069 34.0649 28.686 33.9735C29.4174 33.8516 30.0878 33.7297 30.7278 33.6382C30.2402 35.6801 29.7526 37.5087 29.5698 38.2096C29.204 39.581 24.3584 57.6531 24.4194 58.1712C24.4803 58.6893 24.7241 58.8112 25.0593 58.9027C25.3946 58.9941 25.9736 58.5674 26.2479 57.6836C26.4612 56.9827 30.3012 41.7448 32.3431 33.4249C33.3488 33.2421 34.0497 33.1811 34.324 33.2116Z" fill="#EDE0D1"/>
<path d="M69.4321 49.7904V45.7067L67.7254 49.7904H67.3292L65.6226 45.7067V49.7904H65.1655V45.219H65.8664L67.5426 49.1199L69.2187 45.219H69.9197V49.7904H69.4321Z" fill="#EDE0D1"/>
<path d="M73.638 49.3333C73.3027 49.699 72.8761 49.8514 72.3884 49.8514C71.9008 49.8514 71.5047 49.6685 71.1389 49.3333C70.8037 48.998 70.6208 48.5714 70.6208 48.1142C70.6208 47.6266 70.8037 47.2 71.1389 46.8343C71.4742 46.4685 71.9008 46.2857 72.3884 46.2857C72.8761 46.2857 73.2722 46.4686 73.638 46.8038C73.9732 47.139 74.156 47.5657 74.156 48.0533C74.156 48.5714 74.0037 48.998 73.638 49.3333ZM73.3332 47.1085C73.0589 46.8343 72.7542 46.6819 72.3884 46.6819C72.0227 46.6819 71.6875 46.8343 71.4437 47.1085C71.1999 47.3828 71.0475 47.7181 71.0475 48.0838C71.0475 48.4495 71.1694 48.7847 71.4437 49.059C71.718 49.3333 72.0227 49.4552 72.3884 49.4552C72.7846 49.4552 73.0894 49.3028 73.3637 49.0285C73.6075 48.7542 73.7294 48.419 73.7294 48.0533C73.7294 47.7181 73.6075 47.3828 73.3332 47.1085ZM72.1142 45.9505L71.9008 45.5848L73.1199 44.9143L73.3332 45.28L72.1142 45.9505Z" fill="#EDE0D1"/>
<path d="M77.3561 49.7904V47.9314C77.3561 47.7485 77.3256 47.5962 77.2951 47.4438C77.2342 47.2609 77.1427 47.1085 77.0513 47.0171C76.838 46.8343 76.5942 46.7124 76.3199 46.7124C76.0456 46.7124 75.8018 46.8038 75.5885 47.0171C75.4666 47.1085 75.4056 47.2609 75.3447 47.4438C75.2837 47.5962 75.2837 47.7485 75.2837 47.9314V49.8209H74.8571V46.4381H75.2837V46.8647C75.497 46.5295 75.8628 46.3466 76.3199 46.3466C76.8075 46.3466 77.1732 46.499 77.417 46.8038C77.6608 47.1085 77.8132 47.4742 77.8132 47.9619V49.8209H77.3561V49.7904Z" fill="#EDE0D1"/>
<path d="M82.8415 49.7904V47.9314C82.8415 47.7485 82.8111 47.5962 82.7806 47.4438C82.7196 47.2609 82.6587 47.1085 82.5368 47.0171C82.3235 46.8343 82.0797 46.7124 81.8054 46.7124C81.5311 46.7124 81.2873 46.8038 81.074 47.0171C80.9521 47.1085 80.8911 47.2609 80.8301 47.4438C80.7692 47.5962 80.7692 47.7485 80.7692 47.9314V49.8209H80.3425V46.4381H80.7692V46.8647C80.9825 46.5295 81.3482 46.3466 81.8054 46.3466C82.293 46.3466 82.6587 46.499 82.9025 46.8038C83.1463 47.1085 83.2682 47.4742 83.2682 47.9619V49.8209H82.8415V49.7904Z" fill="#EDE0D1"/>
<path d="M87.4131 49.2723C87.4131 49.3942 87.4131 49.5161 87.4131 49.6076C87.4131 49.7295 87.3826 49.8209 87.3826 49.9123C87.3216 50.1257 87.2607 50.339 87.1083 50.4914C86.8035 50.918 86.3464 51.1314 85.7674 51.1314C85.3407 51.1314 85.0055 51.0094 84.7007 50.7961C84.396 50.5828 84.1522 50.278 84.0607 49.8818H84.5179C84.7312 50.4609 85.1579 50.7352 85.7978 50.7352C86.1636 50.7352 86.4683 50.6133 86.7121 50.3999C86.9254 50.1561 87.0473 49.8514 87.0473 49.4857V49.1809C86.9254 49.3942 86.7426 49.5771 86.4988 49.699C86.255 49.8209 86.0112 49.8818 85.7369 49.8818C85.2493 49.8818 84.8226 49.699 84.4874 49.3638C84.1521 49.0285 83.9693 48.6019 83.9693 48.1142C83.9693 47.6266 84.1521 47.2 84.4874 46.8343C84.8226 46.4686 85.2493 46.3162 85.7369 46.3162C86.3159 46.3162 86.7426 46.56 87.0473 47.0171V46.4076H87.474V49.2723H87.4131ZM86.6207 47.139C86.3464 46.8647 86.0416 46.7124 85.6759 46.7124C85.3102 46.7124 84.975 46.8647 84.7312 47.139C84.4874 47.4133 84.335 47.7181 84.335 48.1142C84.335 48.48 84.4569 48.8152 84.7312 49.0895C85.0055 49.3638 85.3102 49.5161 85.6759 49.5161C86.0416 49.5161 86.3769 49.3638 86.6207 49.0895C86.895 48.8152 87.0169 48.48 87.0169 48.1142C87.0169 47.7181 86.895 47.4133 86.6207 47.139Z" fill="#EDE0D1"/>
<path d="M91.1005 49.3333C90.7653 49.699 90.3386 49.8514 89.851 49.8514C89.3634 49.8514 88.9672 49.6685 88.6015 49.3333C88.2663 48.998 88.0834 48.5714 88.0834 48.1142C88.0834 47.6266 88.2663 47.2 88.6015 46.8343C88.9368 46.4685 89.3634 46.2857 89.851 46.2857C90.3386 46.2857 90.7348 46.4685 91.1005 46.8038C91.4358 47.139 91.6186 47.5657 91.6186 48.0533C91.6186 48.5714 91.4662 48.998 91.1005 49.3333ZM90.7958 47.1085C90.5215 46.8343 90.2167 46.6819 89.851 46.6819C89.4853 46.6819 89.1501 46.8343 88.9063 47.1085C88.6625 47.3828 88.5101 47.7181 88.5101 48.0838C88.5101 48.4495 88.632 48.7847 88.9063 49.059C89.1806 49.3333 89.4853 49.4552 89.851 49.4552C90.2472 49.4552 90.552 49.3028 90.8263 49.0285C91.0701 48.7542 91.192 48.419 91.192 48.0533C91.192 47.7181 91.0701 47.3828 90.7958 47.1085Z" fill="#EDE0D1"/>
<path d="M94.8187 49.7904V47.9314C94.8187 47.7485 94.7883 47.5962 94.7578 47.4438C94.6968 47.2609 94.6054 47.1085 94.514 47.0171C94.3006 46.8343 94.0568 46.7124 93.7826 46.7124C93.5083 46.7124 93.2645 46.8038 93.0511 47.0171C92.9292 47.1085 92.8683 47.2609 92.8073 47.4438C92.7464 47.5962 92.7464 47.7485 92.7464 47.9314V49.8209H92.2892V46.4381H92.7159V46.8647C92.9292 46.5295 93.2949 46.3466 93.7521 46.3466C94.2397 46.3466 94.6054 46.499 94.8492 46.8038C95.093 47.1085 95.2149 47.4742 95.2149 47.9619V49.8209H94.8187V49.7904Z" fill="#EDE0D1"/>
<path d="M102.316 49.7904V47.84C102.316 47.5047 102.255 47.2609 102.102 47.0476C101.95 46.8343 101.706 46.7124 101.401 46.7124C101.097 46.7124 100.853 46.8343 100.7 47.0476C100.548 47.2304 100.487 47.5047 100.487 47.84V49.7904H100.06V47.84C100.06 47.5047 99.9994 47.2609 99.8471 47.0476C99.6947 46.8343 99.4509 46.7124 99.1461 46.7124C98.8414 46.7124 98.5976 46.8343 98.4452 47.0476C98.2928 47.2304 98.2319 47.5047 98.2319 47.84V49.7904H97.7747V46.4076H98.2014V46.8038C98.4147 46.499 98.7195 46.3162 99.1157 46.3162C99.6337 46.3162 99.9995 46.5295 100.243 46.9562C100.518 46.5295 100.883 46.3162 101.371 46.3162C101.798 46.3162 102.133 46.4686 102.377 46.7428C102.62 47.0171 102.742 47.3524 102.742 47.779V49.7904H102.316Z" fill="#EDE0D1"/>
<path d="M103.565 46.0114V45.219H103.992V46.0114H103.565ZM103.565 49.7904V46.4076H103.992V49.7904H103.565Z" fill="#EDE0D1"/>
<path d="M108.167 48.2666H105.089C105.119 48.6019 105.241 48.8761 105.516 49.1199C105.79 49.3638 106.064 49.4857 106.399 49.4857C106.674 49.4857 106.918 49.4247 107.131 49.2723C107.375 49.1199 107.527 48.9371 107.618 48.6933H108.076C107.954 49.059 107.74 49.3333 107.436 49.5466C107.131 49.7599 106.796 49.8818 106.43 49.8818C105.942 49.8818 105.516 49.699 105.18 49.3638C104.845 49.0285 104.662 48.6019 104.662 48.1142C104.662 47.6266 104.845 47.2 105.18 46.8647C105.516 46.499 105.942 46.3467 106.43 46.3467C106.918 46.3467 107.344 46.5295 107.679 46.8952C108.015 47.2609 108.198 47.6876 108.198 48.1752L108.167 48.2666ZM107.71 47.8704C107.649 47.5352 107.497 47.2609 107.253 47.0476C107.009 46.8343 106.704 46.7124 106.369 46.7124C106.034 46.7124 105.759 46.8343 105.485 47.0476C105.241 47.2609 105.089 47.5352 105.028 47.8704H107.71ZM106.948 45.8286L106.43 45.3714L105.881 45.8286H105.333L106.217 45.0667H106.613L107.497 45.8286H106.948ZM107.161 45.1581L105.942 44.4876L106.156 44.1219L107.375 44.7924L107.161 45.1581Z" fill="#EDE0D1"/>
<path d="M111.367 49.7904V47.9314C111.367 47.7485 111.336 47.5962 111.306 47.4438C111.245 47.2609 111.154 47.1085 111.062 47.0171C110.849 46.8343 110.605 46.7124 110.331 46.7124C110.056 46.7124 109.813 46.8038 109.599 47.0171C109.477 47.1085 109.416 47.2609 109.355 47.4438C109.295 47.5962 109.295 47.7485 109.295 47.9314V49.8209H108.868V46.4381H109.295V46.8647C109.508 46.5295 109.874 46.3466 110.331 46.3466C110.818 46.3466 111.184 46.499 111.428 46.8038C111.672 47.1085 111.824 47.4742 111.824 47.9619V49.8209H111.367V49.7904Z" fill="#EDE0D1"/>
<path d="M115.146 46.8038V49.7904H114.719V46.8038H114.018V46.4076H114.719V45.219H115.146V46.4076H115.969V46.8038H115.146Z" fill="#EDE0D1"/>
<path d="M119.412 49.7904V49.1809C119.108 49.638 118.681 49.8514 118.102 49.8514C117.584 49.8514 117.157 49.6685 116.822 49.3333C116.456 48.998 116.304 48.5714 116.304 48.0533C116.304 47.5352 116.487 47.139 116.853 46.7733C117.218 46.4381 117.645 46.2552 118.133 46.2552C118.712 46.2552 119.169 46.4686 119.443 46.9257V46.3467H119.87V49.7295H119.412V49.7904ZM119.047 47.139C118.772 46.8647 118.468 46.7124 118.072 46.7124C117.675 46.7124 117.34 46.8343 117.066 47.1085C116.792 47.3828 116.67 47.7181 116.67 48.1142C116.67 48.5104 116.792 48.8457 117.066 49.0895C117.34 49.3333 117.645 49.4857 118.041 49.4857C118.437 49.4857 118.742 49.3333 119.016 49.0895C119.291 48.8152 119.412 48.5104 119.412 48.1142C119.443 47.7181 119.321 47.3828 119.047 47.139ZM118.651 45.8286L118.102 45.3714L117.553 45.8286H117.005L117.889 45.0667H118.285L119.169 45.8286H118.651Z" fill="#EDE0D1"/>
<path d="M121.485 50.979H121.028L121.607 49.6685L120.296 46.4076H120.753L121.82 49.0895L122.978 46.4076H123.435L121.485 50.979Z" fill="#EDE0D1"/>
<path d="M0.891956 35.9849C0.922431 35.9239 0.922431 35.8934 0.983383 35.863C1.04433 35.7106 1.04433 35.5582 1.10529 35.4363C1.10529 35.3449 1.13576 35.2839 1.16624 35.2535C1.25767 35.1316 1.34909 35.0401 1.44052 34.9487C1.68433 34.7049 1.98908 34.522 2.26337 34.3087C2.29384 34.2782 2.35479 34.2478 2.38527 34.2478C2.65955 34.0954 2.96431 33.9735 3.23859 33.7906C3.36049 33.6992 3.51287 33.6078 3.66525 33.5773C3.90906 33.5163 4.12239 33.3944 4.33572 33.303C4.57952 33.1811 4.82333 33.0287 5.09761 32.9678C5.18904 32.9373 5.28047 32.8763 5.37189 32.8154C5.46332 32.724 5.55475 32.6935 5.67665 32.663C6.25569 32.5106 6.80426 32.2668 7.35282 32.023C7.6271 31.9011 7.90138 31.7487 8.20614 31.6573C8.32804 31.5964 8.48042 31.5659 8.57185 31.4745C8.72423 31.383 8.87661 31.3221 9.02899 31.2916C9.15089 31.2611 9.24232 31.2307 9.33375 31.2002C9.42517 31.1392 9.5166 31.1088 9.60803 31.0783C9.72993 31.0478 9.88231 30.9868 9.94326 30.8649C9.97374 30.8345 10.0042 30.8345 10.0347 30.804C10.3699 30.6516 10.7052 30.5297 11.0099 30.3469C11.1928 30.2554 11.3756 30.1945 11.5585 30.1031C11.8023 29.9811 12.0461 29.8897 12.2899 29.7373C12.5947 29.5545 12.9299 29.4021 13.2346 29.1888C13.2651 29.1583 13.2956 29.1583 13.2956 29.1583C13.6308 29.0059 13.9356 28.7926 14.2708 28.6402C14.3013 28.6097 14.3318 28.6097 14.3318 28.6097C14.6061 28.4574 14.9413 28.2745 15.307 28.0916C16.0994 27.604 18.7203 25.9279 19.4517 25.2879C20.1831 24.6784 20.7317 24.2212 20.945 23.7641C21.1888 23.307 22.1031 22.3317 22.4079 22.0879C22.6821 21.8746 23.444 21.7222 23.5659 21.7222C23.7488 21.6613 23.9316 21.6917 24.1145 21.7222C24.3888 21.7527 24.6935 21.7527 24.9069 21.5698C24.9373 21.5394 24.9678 21.5394 24.9983 21.5394C25.1202 21.4784 25.1507 21.4479 25.0288 21.326C24.9678 21.2651 24.9069 21.2041 24.8764 21.1432C24.724 20.9298 24.724 20.747 24.8764 20.5337C24.9373 20.4422 25.0288 20.3813 25.1202 20.3203C25.303 20.1984 25.4859 20.1679 25.6688 20.2594C25.7602 20.2899 25.8516 20.3508 25.943 20.3813C26.0345 20.3813 26.0954 20.4422 26.1259 20.5032C26.1564 20.5946 26.2173 20.5946 26.3088 20.5641C26.4611 20.5337 26.583 20.5641 26.7049 20.6556C26.9487 20.747 27.1316 20.9603 27.3449 21.0822C27.4059 21.1127 27.4364 21.1736 27.4059 21.2346C27.3449 21.387 27.4059 21.4784 27.4668 21.6003C27.6497 21.8746 27.5887 22.3927 27.1925 22.5755C26.9792 22.6974 26.7659 22.667 26.583 22.5451C26.4307 22.4232 26.2783 22.3622 26.1259 22.2403C26.0649 22.1793 26.004 22.2098 25.9735 22.2708C25.943 22.3622 25.8821 22.4536 25.8211 22.5451C25.7907 22.5755 25.7602 22.606 25.7907 22.6365C25.8516 22.7279 25.8211 22.8498 25.8516 22.9412C25.9126 23.1241 25.9735 23.2765 25.9735 23.4593C25.9735 23.5203 26.004 23.5812 26.0649 23.5508C26.1564 23.5203 26.2478 23.5508 26.3392 23.5812C26.4307 23.6117 26.5221 23.6422 26.6135 23.6117C26.644 23.5812 26.7049 23.6117 26.7354 23.6422C26.8573 23.6727 26.9487 23.6422 27.0706 23.6117C27.1925 23.5812 27.284 23.5508 27.4059 23.5508C27.5887 23.5812 27.7716 23.6117 27.9544 23.6117C27.9849 23.6117 28.0459 23.6117 28.0459 23.6422C28.0763 23.7031 27.9849 23.7031 27.9544 23.7336C27.9544 23.7336 27.924 23.7641 27.8935 23.7641C27.6192 23.7641 27.4059 23.9469 27.1316 23.9165C27.0402 23.9165 26.9487 23.9469 26.8573 23.9165C26.7964 23.886 26.7354 23.886 26.6745 23.9165C26.5526 23.9469 26.4307 23.9469 26.3088 23.9165C26.1868 23.886 26.0954 23.8555 25.9735 23.8555C25.8516 23.8555 25.7602 23.825 25.7297 23.6727C25.6992 23.4593 25.6383 23.2765 25.6078 23.0631C25.7297 22.8498 25.6992 22.8498 25.5469 22.9717C25.5469 22.9717 25.5469 22.9717 25.5164 22.9717C25.425 23.0936 25.3031 23.2155 25.1811 23.307C25.0897 23.3984 25.0592 23.5203 25.0897 23.6422C25.0897 23.7031 25.1202 23.7336 25.1202 23.7946C25.0897 23.8555 25.1202 23.9165 25.1202 24.0079V24.0384C25.1507 24.0384 25.1507 24.0688 25.1507 24.0993C25.1811 24.1908 25.1507 24.2822 25.1507 24.3736C25.1202 24.4955 25.1811 24.526 25.2726 24.526C25.3945 24.4955 25.4859 24.526 25.5773 24.6174C25.6078 24.6479 25.6383 24.6479 25.6688 24.6784C25.8211 24.7088 25.9126 24.8307 26.0649 24.8307C26.1259 24.8307 26.1868 24.8612 26.2173 24.9222C26.2783 24.9831 26.3392 24.9831 26.4002 24.9831C26.6745 25.0136 26.9487 25.0745 27.1925 25.166C27.3754 25.2269 27.0097 25.4098 27.1925 25.4707V25.5012C27.284 25.5012 27.3449 25.5317 27.4364 25.6231C27.1011 25.5926 26.8268 25.5622 26.5221 25.5012C26.4916 25.5012 27.0097 25.4098 26.9792 25.3793C26.9487 25.3793 26.9183 25.3793 26.9183 25.3793C26.8878 25.3793 26.8573 25.4098 26.7964 25.3793C26.7659 25.3793 26.7354 25.3793 26.7354 25.3793C26.7049 25.3793 26.6745 25.3793 26.6745 25.3793C26.644 25.3793 26.6135 25.3793 26.6135 25.3793C26.583 25.3793 26.5526 25.4098 26.4916 25.3793C26.4611 25.3793 26.4611 25.3793 26.4611 25.3488C26.4002 25.3488 26.3392 25.3184 26.3088 25.2879C26.3088 25.2879 26.3088 25.2879 26.3088 25.3184C26.0954 25.3793 25.9126 25.3184 25.7297 25.2269C25.5164 25.105 25.3335 24.9526 25.0897 24.8917C25.0288 24.8917 24.9678 24.8307 24.9678 24.7698C24.9373 24.5869 24.9069 24.4041 24.8764 24.2212C24.8764 24.1908 24.9069 24.1603 24.9373 24.1603C24.9373 24.0688 24.8764 24.0079 24.9069 23.9165V23.886C24.9069 23.886 24.9069 23.8555 24.9373 23.8555C24.9373 23.825 24.9373 23.7946 24.9069 23.7641V23.7336C24.8764 23.7336 24.8764 23.7336 24.8459 23.7336C24.8154 23.7336 24.8154 23.7641 24.785 23.7641L24.7545 23.7946C24.6935 23.886 24.5716 23.9469 24.5412 24.0384C24.5412 24.0384 24.5412 24.0688 24.5107 24.0688C24.5107 24.0993 24.5107 24.0993 24.5107 24.1298H24.4802C24.4802 24.1603 24.4802 24.1603 24.4497 24.1603C24.4193 24.2212 24.3583 24.2822 24.3278 24.3736C24.2973 24.526 24.2059 24.6784 24.084 24.8003C24.0231 24.8612 23.9926 24.9526 24.0535 25.0136C24.1754 25.166 24.2364 25.3184 24.2973 25.5012C24.3583 25.6841 24.4193 25.8669 24.5716 26.0193C24.6021 26.0498 24.6021 26.0802 24.6021 26.1107C24.6021 26.1717 24.6326 26.2631 24.6631 26.3241C24.6935 26.3241 24.6935 26.3545 24.724 26.385C24.7545 26.385 24.785 26.4155 24.785 26.446C24.8154 26.446 24.8459 26.5069 24.8459 26.5374C24.8764 26.5374 24.8764 26.5679 24.9069 26.5983C24.9373 26.5983 24.9373 26.6288 24.9678 26.6593C24.9983 26.6593 24.9983 26.6898 24.9983 26.7202C24.9983 26.7202 24.9983 26.7507 25.0288 26.7507C25.0592 26.7507 25.0592 26.7812 25.0592 26.8117C25.0592 26.8117 25.0592 26.8421 25.0897 26.8421C25.1202 26.8421 25.1507 26.9031 25.1507 26.9336C25.1507 26.9336 25.1507 26.964 25.1811 26.964C25.2116 26.9945 25.2116 27.025 25.2421 27.0555C25.2421 27.086 25.2726 27.1164 25.2726 27.1469C25.303 27.1469 25.303 27.1774 25.303 27.2079C25.4554 27.4821 25.5773 27.7564 25.7297 28.0612C25.7297 28.0612 25.7297 28.0917 25.6992 28.1221C25.6383 28.0917 25.6078 28.0307 25.5773 28.0002C25.364 27.7564 25.1507 27.4821 24.9678 27.2383C24.9373 27.1164 24.8154 27.0555 24.785 26.9336C24.7545 26.9336 24.7545 26.9031 24.724 26.8726C24.6935 26.8726 24.6935 26.8421 24.6631 26.8117C24.6326 26.7812 24.6021 26.7507 24.6021 26.7202V26.6898C24.5412 26.6593 24.5412 26.5983 24.5107 26.5374C24.4193 26.446 24.3583 26.385 24.2973 26.2936C24.2669 26.2936 24.2669 26.2631 24.2364 26.2326C24.2364 26.2022 24.2364 26.2022 24.2059 26.1717C24.145 26.1412 24.145 26.0802 24.145 26.0193C24.084 25.8669 24.0535 25.745 24.0231 25.5926C23.9621 25.5622 23.9621 25.5012 23.9621 25.4707C23.9621 25.4098 23.9621 25.3488 23.9316 25.3184C23.8097 25.2269 23.8097 25.105 23.8707 24.9831C23.8707 24.9526 23.8707 24.9526 23.8707 24.9222C23.8707 24.8917 23.8707 24.8917 23.9012 24.8917C23.9012 24.8612 23.9316 24.8612 23.9316 24.8307C23.9621 24.8307 23.9621 24.8003 23.9926 24.8003C23.9926 24.7088 24.0231 24.6174 24.084 24.526C24.1145 24.465 24.145 24.4346 24.1754 24.3736C24.2059 24.3431 24.2364 24.3127 24.2059 24.2822C24.1754 24.2517 24.145 24.2822 24.1145 24.2822C24.084 24.3127 24.0535 24.3431 23.9926 24.3431C23.9926 24.3736 23.9621 24.3736 23.9316 24.3736C23.8402 24.4346 23.7488 24.4955 23.6269 24.526C23.5659 24.5565 23.4745 24.5869 23.4136 24.5869C23.4136 24.6174 23.3831 24.6174 23.3526 24.6479C23.1393 24.7088 22.9259 24.8612 22.7126 24.8307C22.6517 24.8612 22.5907 24.8612 22.5298 24.8917C22.4993 24.8917 22.4383 24.9222 22.4079 24.9222C22.4079 24.9222 22.3774 24.9222 22.3774 24.8917C22.3469 24.8917 22.3469 24.8917 22.3164 24.9222L22.2859 24.9526C22.2859 25.105 22.164 25.1965 22.0117 25.2574C21.8898 25.3184 21.7679 25.4098 21.6764 25.4707C21.6155 25.5317 21.5545 25.5926 21.4936 25.6231C21.3412 25.7755 21.1888 25.8974 21.006 25.9888C20.8841 26.0498 20.7622 26.0802 20.6403 26.1717C20.4879 26.2936 20.3355 26.3545 20.1831 26.4764C20.0307 26.5679 19.8479 26.6593 19.6955 26.7507C19.6955 26.8117 19.6346 26.8117 19.6041 26.8421C19.5736 26.8726 19.5431 26.8726 19.5431 26.9031C19.4517 26.964 19.3603 26.9031 19.2688 26.964C18.8727 27.2079 18.446 27.4212 18.1108 27.7259C18.1412 27.7869 18.1108 27.7869 18.0803 27.8174V27.8478C18.0498 27.9088 18.0193 27.9697 17.9584 28.0002V28.0307C17.8974 28.1526 17.7451 28.1831 17.6536 28.2745C17.5317 28.3355 17.4098 28.4878 17.227 28.4574C17.1965 28.4574 17.1965 28.4878 17.166 28.4878C17.0136 28.5183 16.8917 28.6402 16.7394 28.6402C16.587 28.6402 16.4346 28.7012 16.3432 28.8231C16.2517 28.9145 16.1603 28.9754 16.0689 29.0059C15.9165 29.0669 15.7946 29.0974 15.6422 29.1888C15.2765 29.4326 14.8803 29.6459 14.5146 29.8592C13.9356 30.1945 13.3565 30.4992 12.7775 30.804C12.6861 30.8954 12.5947 30.9259 12.4727 30.9564C12.2899 31.0173 12.107 31.1088 11.9547 31.2002C11.8632 31.2611 11.7413 31.3221 11.6194 31.383C11.528 31.4135 11.4366 31.444 11.3451 31.4745C11.1318 31.5659 10.949 31.6878 10.7356 31.7487C10.6442 31.7792 10.5528 31.8402 10.4918 31.8706C10.1566 32.084 9.79088 32.2668 9.42517 32.4192C9.18137 32.5106 8.93756 32.6021 8.69375 32.724C8.44995 32.8459 8.20614 32.9678 7.96234 33.0897C7.65758 33.2116 7.35282 33.364 7.04806 33.4859C6.83473 33.5773 6.6214 33.6687 6.40807 33.7601C6.22522 33.8211 6.07284 33.9125 5.88998 33.9735C5.82903 34.004 5.76808 34.0344 5.70713 34.0649C5.46332 34.2478 5.18904 34.3392 4.91476 34.4611C4.70143 34.583 4.45762 34.6744 4.24429 34.7963C4.03096 34.9182 3.75668 34.9487 3.6043 35.162H3.57382C3.45192 35.223 3.33002 35.3144 3.20811 35.3449C3.05574 35.4058 2.87288 35.4973 2.7205 35.4668C2.53765 35.4668 2.41574 35.4973 2.32432 35.6192C2.23289 35.7411 2.11099 35.7715 1.95861 35.802C1.92813 35.8325 1.92813 35.863 1.89766 35.9239C1.8367 35.9849 1.77575 36.0458 1.68433 36.0763C1.56242 36.1068 1.44052 36.1373 1.28814 36.1982C1.25767 36.1982 1.22719 36.2287 1.19671 36.1982C0.86148 36.1373 0.831004 36.0763 0.891956 35.9849Z" fill="#EDE0D1"/>
<path d="M22.286 22.7279L22.4384 22.4536C22.4079 22.4536 20.5489 21.4479 19.1775 20.6556C17.7451 19.8327 13.6614 16.6023 11.2538 14.3166C8.8767 12.0309 7.74909 8.03859 7.71862 8.00811C7.71862 7.97764 7.50529 7.3986 6.8653 5.5091C6.40816 4.16817 6.40816 3.25389 6.40816 2.46152C6.40816 2.12629 6.40816 1.82153 6.37768 1.51677C6.31673 1.05964 6.49959 0.663453 6.80435 0.450123C7.26148 0.145365 8.05385 0.32822 8.9986 0.876784C11.1014 2.15677 14.6061 8.83096 14.6366 8.92239L14.6671 8.95286C14.6976 8.98334 18.2023 12.8233 20.0918 15.2309C21.9508 17.608 23.2308 21.8441 23.2308 21.8746L23.5355 21.7832C23.5355 21.7527 22.2251 17.4556 20.3356 15.0175C18.507 12.6709 15.1547 8.98334 14.9109 8.73953C14.6671 8.31287 11.3148 1.91296 9.18146 0.632977C7.81005 -0.189869 7.04815 -0.0679654 6.65197 0.206317C6.22531 0.450123 6.01198 0.968211 6.07293 1.57773C6.1034 1.88248 6.1034 2.15677 6.1034 2.492C6.1034 3.28437 6.1034 4.22912 6.56054 5.631C7.20053 7.55098 7.41386 8.13002 7.41386 8.13002C7.44434 8.2824 8.57194 12.2442 11.01 14.5909C13.4176 16.8766 17.5623 20.1375 18.9947 20.9603C20.3661 21.7222 22.2556 22.7279 22.286 22.7279Z" fill="#EDE0D1"/>
<path d="M22.7431 22.3927L22.926 22.1489C22.926 22.1489 22.0422 21.5089 20.2441 19.8632C19.4213 19.1013 18.5375 18.0346 17.5013 16.7851C16.2213 15.2309 14.7585 13.4633 12.869 11.6043C9.42523 8.22145 7.84049 8.5262 7.77954 8.5262L7.84049 8.83096C7.87097 8.83096 9.36428 8.58716 12.6557 11.7871C14.5147 13.6157 15.9775 15.3833 17.2575 16.9375C18.2937 18.187 19.1775 19.2537 20.0308 20.046C21.8594 21.7222 22.7127 22.3622 22.7431 22.3927Z" fill="#EDE0D1"/>
<path d="M12.229 10.9947C12.229 10.9338 12.29 10.4157 11.8328 7.09384C11.3757 3.71103 8.63286 0.389168 8.51096 0.236789L8.26715 0.450119C8.29763 0.480595 11.1014 3.83293 11.5281 7.12431C11.9547 10.3852 11.9242 10.9033 11.9242 10.9338L12.229 10.9947Z" fill="#EDE0D1"/>
<path d="M16.2519 28.1221C16.709 28.0002 17.2271 27.7869 17.8061 27.4821L17.6538 27.2079C14.8805 28.6402 13.631 27.9088 11.711 26.8117C11.5281 26.7202 11.3453 26.5983 11.1624 26.5069C8.90722 25.2574 5.49393 21.4175 3.75681 19.1622C1.83684 16.6328 0.983519 14.2556 1.2578 13.768C1.59303 13.189 2.50731 12.9757 3.90919 13.1585C5.25013 13.3109 7.96247 15.2004 9.73007 16.4194L10.1263 16.6937C11.8024 17.8518 12.6557 18.2175 14.2405 18.888C14.4233 18.9489 14.6062 19.0403 14.789 19.1013C16.709 19.9241 22.0728 22.6365 22.1337 22.667L22.2861 22.3927C22.2251 22.3622 16.8309 19.6499 14.9414 18.827C14.7586 18.7356 14.5757 18.6746 14.3929 18.5832C12.8386 17.9432 11.9853 17.5775 10.3396 16.4499L9.88245 16.1451C7.96247 14.8347 5.34156 13.0061 3.90919 12.8233C2.3854 12.6404 1.3797 12.9147 0.953043 13.5852C0.495907 14.3166 1.68446 16.9985 3.45206 19.3146C5.21965 21.6003 8.66342 25.4707 10.9796 26.7507C11.1624 26.8421 11.3453 26.964 11.5281 27.0555C13.1129 27.9697 14.3319 28.6707 16.2519 28.1221Z" fill="#EDE0D1"/>
<path d="M22.2251 22.8803L22.1946 22.5755C22.1337 22.5755 16.648 23.1851 11.1015 21.1736C5.25011 19.0403 2.26348 15.4442 1.16635 14.1033L0.922546 14.3166C2.05015 15.688 5.06725 19.3146 10.9796 21.4784C16.5871 23.5203 22.1642 22.8803 22.2251 22.8803Z" fill="#EDE0D1"/>
<path d="M8.32824 20.3203L8.45014 20.0156C8.35872 19.9851 6.28636 19.1927 4.27496 20.0765L4.39687 20.3508C6.28636 19.5584 8.29777 20.3203 8.32824 20.3203Z" fill="#EDE0D1"/>
<path d="M18.7204 26.446C18.7204 26.446 18.568 25.4403 19.208 24.5565C19.848 23.7031 21.2499 23.8555 21.2499 23.8555L21.2804 23.5508C21.2194 23.5508 19.6652 23.3374 18.9337 24.3736C18.2023 25.3488 18.3852 26.446 18.3852 26.5069L18.7204 26.446Z" fill="#EDE0D1"/>
</svg>
